HIERARCHY
ROOT Hips
{
    OFFSET 0.000000 0.000000 0.000000
    CHANNELS 6 Xposition Yposition Zposition Zrotation Xrotation Yrotation
    JOINT Spine
    {
        OFFSET -0.000000 7.236184 0.000000
        CHANNELS 3 Zrotation Xrotation Yrotation
        JOINT Spine1
        {
            OFFSET -0.000000 20.420147 0.000000
            CHANNELS 3 Zrotation Xrotation Yrotation
            JOINT Neck
            {
                OFFSET -0.000000 20.336288 1.848754
                CHANNELS 3 Zrotation Xrotation Yrotation
                JOINT Head
                {
                    OFFSET -0.000000 12.354461 -1.764923
                    CHANNELS 3 Zrotation Xrotation Yrotation
                    End Site
                    {
                        OFFSET -0.000000 22.061537 0.000000
                    }
                }
            }
            JOINT LeftShoulder
            {
                OFFSET 3.573296 18.396038 -0.314103
                CHANNELS 3 Zrotation Xrotation Yrotation
                JOINT LeftArm
                {
                    OFFSET 10.880760 0.000000 0.000000
                    CHANNELS 3 Zrotation Xrotation Yrotation
                    JOINT LeftForeArm
                    {
                        OFFSET 27.185530 0.000000 0.000000
                        CHANNELS 3 Zrotation Xrotation Yrotation
                        JOINT LeftHand
                        {
                            OFFSET 27.825975 0.000000 0.000000
                            CHANNELS 3 Zrotation Xrotation Yrotation
                            End Site
                            {
                                OFFSET 13.236923 0.000000 0.000000
                            }
                        }
                    }
                }
            }
            JOINT RightShoulder
            {
                OFFSET -3.474926 18.396038 -0.314103
                CHANNELS 3 Zrotation Xrotation Yrotation
                JOINT RightArm
                {
                    OFFSET -10.880760 0.000000 0.000000
                    CHANNELS 3 Zrotation Xrotation Yrotation
                    JOINT RightForeArm
                    {
                        OFFSET -27.185530 0.000000 0.000000
                        CHANNELS 3 Zrotation Xrotation Yrotation
                        JOINT RightHand
                        {
                            OFFSET -27.825975 0.000000 0.000000
                            CHANNELS 3 Zrotation Xrotation Yrotation
                            End Site
                            {
                                OFFSET -13.236923 0.000000 0.000000
                            }
                        }
                    }
                }
            }
        }
    }
    JOINT LeftUpLeg
    {
        OFFSET 8.824615 0.000000 0.000000
        CHANNELS 3 Zrotation Xrotation Yrotation
        JOINT LeftLeg
        {
            OFFSET -0.000000 -35.111282 0.000000
            CHANNELS 3 Zrotation Xrotation Yrotation
            JOINT LeftFoot
            {
                OFFSET -0.000000 -42.324711 0.000000
                CHANNELS 3 Zrotation Xrotation Yrotation
                JOINT LeftToeBase
                {
                    OFFSET -0.000000 -5.735999 13.236923
                    CHANNELS 3 Zrotation Xrotation Yrotation
                    End Site
                    {
                        OFFSET -0.000000 0.000000 3.529846
                    }
                }
            }
        }
    }
    JOINT RightUpLeg
    {
        OFFSET -8.824615 0.000000 0.000000
        CHANNELS 3 Zrotation Xrotation Yrotation
        JOINT RightLeg
        {
            OFFSET -0.000000 -35.111282 0.000000
            CHANNELS 3 Zrotation Xrotation Yrotation
            JOINT RightFoot
            {
                OFFSET -0.000000 -42.324711 0.000000
                CHANNELS 3 Zrotation Xrotation Yrotation
                JOINT RightToeBase
                {
                    OFFSET -0.000000 -5.735999 13.236923
                    CHANNELS 3 Zrotation Xrotation Yrotation
                    End Site
                    {
                        OFFSET -0.000000 0.000000 3.529846
                    }
                }
            }
        }
    }
}
MOTION
Frames:    9
Frame Time:    0.008333
23.342909    81.551712    110.410332    -3.560328    -11.213727    179.435806    -1.956350    -6.374963    1.015247    -0.593092    5.560719    1.153090    1.395237    4.948537    -1.728554    5.660495    4.081732    -1.335043    2.988127    9.046048    -8.743912    -30.619253    24.035070    -49.980728    11.597733    -1.192052    -23.664467    26.115379    -0.026724    -5.485468    -0.839212    10.240499    5.854309    20.702318    21.789232    50.236568    -20.611921    -6.665120    42.014977    -23.281612    0.087674    6.047393    22.968557    -25.558102    3.341084    4.973492    40.956295    0.073168    -9.698940    5.017838    -17.732887    -1.731366    -6.703650    1.943918    -15.469153    -19.709833    -9.175112    4.933459    19.232655    3.037920    8.148170    -9.813602    -4.955830    -1.405223    -0.147533    1.520154    
22.983274    81.455887    110.486237    -3.399769    -11.235952    179.576706    -1.948174    -6.333257    0.987583    -0.544143    5.569565    1.121892    1.411820    4.841569    -1.767089    5.795187    4.064028    -1.362834    3.205258    8.559211    -9.325781    -29.654385    23.279486    -51.316345    11.582611    -1.300165    -23.103388    25.589140    -0.156744    -5.423031    -1.100598    9.927036    6.442712    20.120085    20.905981    51.534946    -20.454487    -6.514086    40.708977    -22.896439    -0.092639    6.147385    22.921509    -25.435543    3.308371    4.435030    39.218094    0.481428    -9.822448    4.931117    -17.466478    -1.745290    -6.374541    1.958240    -15.665448    -19.905516    -9.404154    4.934060    19.546772    3.055412    8.276217    -9.774829    -4.948440    -1.446426    -0.122155    1.564672    
22.609497    81.348335    110.558846    -3.231339    -11.252874    179.707291    -1.938448    -6.286924    0.961863    -0.487909    5.583188    1.092136    1.431376    4.730744    -1.805769    5.929166    4.050094    -1.391439    3.422613    8.087529    -9.890368    -28.734676    22.516243    -52.606220    11.568333    -1.408261    -22.545113    25.090370    -0.288789    -5.364588    -1.366362    9.623274    7.014720    19.586010    20.025229    52.775982    -20.285494    -6.365510    39.402706    -22.510935    -0.269612    6.233462    22.866760    -25.333694    3.246382    3.960682    37.637287    0.865834    -9.954595    4.798344    -17.207069    -1.759920    -6.058874    1.973396    -15.864130    -20.125101    -9.616548    4.932595    19.912121    3.085755    8.403761    -9.750625    -4.960076    -1.489977    -0.096474    1.611725    
22.221813    81.229424    110.627983    -3.055490    -11.264122    179.827713    -1.926992    -6.235939    0.938750    -0.424786    5.601480    1.064587    1.453981    4.616622    -1.845033    6.061790    4.039084    -1.421304    3.639550    7.633074    -10.435983    -27.861406    21.746834    -53.851398    11.553993    -1.513529    -21.993086    24.620102    -0.420222    -5.310835    -1.634990    9.329912    7.567293    19.101072    19.149534    53.958298    -20.106867    -6.220048    38.103107    -22.128752    -0.441963    6.305887    22.804209    -25.255966    3.160562    3.547962    36.220222    1.228753    -10.096597    4.618755    -16.957109    -1.775268    -5.760223    1.989412    -16.064859    -20.365541    -9.810909    4.928777    20.323769    3.126557    8.533333    -9.739915    -4.988871    -1.535401    -0.071197    1.660801    
21.816507    81.098351    110.694160    -2.871040    -11.269300    179.939362    -1.913577    -6.179451    0.918829    -0.354532    5.624313    1.039574    1.480232    4.499108    -1.885588    6.193092    4.029315    -1.453172    3.856879    7.193031    -10.967005    -27.027472    20.965597    -55.063705    11.539246    -1.614789    -21.445374    24.174702    -0.549753    -5.262212    -1.907254    9.045138    8.102951    18.661409    18.272680    55.091591    -19.919020    -6.077176    36.804115    -21.749554    -0.610600    6.365853    22.732775    -25.204712    3.056246    3.191892    34.959015    1.572402    -10.251608    4.389298    -16.715937    -1.791425    -5.479032    2.006391    -16.269634    -20.625731    -9.987385    4.922895    20.780231    3.175826    8.668575    -9.741224    -5.033744    -1.582650    -0.046826    1.711852    
21.397127    80.956665    110.756554    -2.680044    -11.268070    -179.958206    -1.898219    -6.118404    0.902757    -0.277794    5.651978    1.018019    1.509406    4.379154    -1.927565    6.321590    4.020777    -1.487314    4.071455    6.772871    -11.477256    -26.241467    20.181843    -56.232910    11.523973    -1.709380    -20.910675    23.758438    -0.674169    -5.219420    -2.179197    8.772141    8.614246    18.272163    17.405190    56.163387    -19.725679    -5.939437    35.524593    -21.380119    -0.773065    6.412757    22.652647    -25.183537    2.940997    2.895046    33.870148    1.891084    -10.420527    4.110656    -16.487869    -1.808381    -5.220146    2.024339    -16.476532    -20.899988    -10.143496    4.914929    21.271906    3.230670    8.810914    -9.752926    -5.092249    -1.630526    -0.024647    1.763582    
20.963808    80.805054    110.815117    -2.483183    -11.260323    -179.864258    -1.881044    -6.052773    0.891166    -0.194625    5.684088    1.000292    1.541153    4.258051    -1.971504    6.446761    4.011848    -1.524135    4.282225    6.373145    -11.966518    -25.504723    19.398325    -57.359444    11.508358    -1.795819    -20.392372    23.371183    -0.791474    -5.182973    -2.449373    8.511729    9.099092    17.933298    16.549723    57.172718    -19.529730    -5.808061    34.271015    -21.023335    -0.929431    6.447217    22.563486    -25.194727    2.822082    2.655582    32.954334    2.180340    -10.605223    3.781825    -16.274101    -1.825918    -4.985349    2.043021    -16.685719    -21.184372    -10.279028    4.905076    21.792141    3.288958    8.962595    -9.773073    -5.162285    -1.678202    -0.005524    1.815099    
20.511761    80.642548    110.870399    -2.278816    -11.245903    -179.776749    -1.860265    -5.982126    0.884086    -0.108030    5.720665    0.986763    1.579018    4.135664    -2.017888    6.568011    4.001448    -1.564646    4.493229    5.990558    -12.439720    -24.811077    18.609236    -58.455967    11.492762    -1.874020    -19.887999    23.008486    -0.901529    -5.153158    -2.715690    8.261893    9.561632    17.639919    15.699753    58.127895    -19.331102    -5.683103    33.036453    -20.678015    -1.081466    6.470131    22.463860    -25.240580    2.705466    2.469888    32.202053    2.437582    -10.809845    3.397766    -16.073828    -1.843947    -4.771271    2.062323    -16.899544    -21.478001    -10.395753    4.893095    22.339907    3.349596    9.127577    -9.799658    -5.242507    -1.725078    0.009828    1.865758    
20.046415    80.471947    110.921608    -2.070006    -11.225245    -179.695755    -1.840247    -5.909038    0.882165    -0.008618    5.763724    0.977588    1.612455    4.012418    -2.067762    6.686972    3.989515    -1.608496    4.692142    5.627802    -12.891337    -24.165895    17.830467    -59.507195    11.478106    -1.943356    -19.409391    22.675020    -1.003157    -5.129205    -2.986488    8.039915    9.986669    17.398731    14.855750    59.029621    -19.134398    -5.566405    31.839926    -20.350859    -1.226261    6.483142    22.354605    -25.322586    2.599207    2.338847    31.622450    2.654135    -11.033445    2.961879    -15.891175    -1.861862    -4.580724    2.081583    -17.115625    -21.773384    -10.492830    4.879106    22.901640    3.410584    9.305967    -9.830104    -5.330014    -1.769602    0.020132    1.913885    
